<?xml version="1.0" encoding="utf-8"?>
<!-- Generator: Adobe Illustrator 22.0.1, SVG Export Plug-In . SVG Version: 6.00 Build 0)  -->
<svg version="1.1" id="Layer_1" xmlns="http://www.w3.org/2000/svg" xmlns:xlink="http://www.w3.org/1999/xlink" x="0px" y="0px"
	 viewBox="0 0 120.1 150" style="enable-background:new 0 0 120.1 150;" xml:space="preserve">
<style type="text/css">
	.st0{fill:#0074ED;}
	.st1{fill:#FFFFFF;}
</style>
<path class="st0" d="M40.6,24.1c0,10.6-8.6,19.3-19.3,19.3c-10.6,0-19.3-8.6-19.3-19.3c0-10.6,8.6-19.3,19.3-19.3
	C32,4.8,40.6,13.5,40.6,24.1z"/>
<path class="st1" d="M20.1,116.4c0,5-4,9-9,9c-5,0-9-4-9-9c0-5,4-9,9-9C16.1,107.4,20.1,111.5,20.1,116.4z"/>
<path class="st1" d="M40.6,116.4c0,5-4,9-9,9c-5,0-9-4-9-9c0-5,4-9,9-9C36.6,107.4,40.6,111.5,40.6,116.4z"/>
<path class="st1" d="M20.1,137.2c0,5-4,9-9,9c-5,0-9-4-9-9c0-5,4-9,9-9C16.1,128.2,20.1,132.2,20.1,137.2z"/>
<path class="st1" d="M40.6,137.2c0,5-4,9-9,9c-5,0-9-4-9-9c0-5,4-9,9-9C36.6,128.2,40.6,132.2,40.6,137.2z"/>
<path class="st1" d="M20.1,96c0,5-4,9-9,9c-5,0-9-4-9-9c0-5,4-9,9-9C16.1,87,20.1,91,20.1,96z"/>
<path class="st1" d="M40.6,96c0,5-4,9-9,9c-5,0-9-4-9-9c0-5,4-9,9-9C36.6,87,40.6,91,40.6,96z"/>
<path class="st1" d="M20.1,75.5c0,5-4,9-9,9c-5,0-9-4-9-9c0-5,4-9,9-9C16.1,66.5,20.1,70.5,20.1,75.5z"/>
<path class="st1" d="M40.6,75.5c0,5-4,9-9,9c-5,0-9-4-9-9c0-5,4-9,9-9C36.6,66.5,40.6,70.5,40.6,75.5z"/>
<path class="st1" d="M20.1,55c0,5-4,9-9,9c-5,0-9-4-9-9c0-5,4-9,9-9C16.1,46,20.1,50,20.1,55z"/>
<path class="st1" d="M40.6,55c0,5-4,9-9,9c-5,0-9-4-9-9c0-5,4-9,9-9C36.6,46,40.6,50,40.6,55z"/>
<path class="st1" d="M60.3,34.5c0,4.4-3.6,8-8,8c-4.4,0-8-3.6-8-8c0-4.4,3.6-8,8-8C56.7,26.5,60.3,30.1,60.3,34.5z"/>
<path class="st1" d="M79.2,34.5c0,3.5-2.9,6.4-6.4,6.4c-3.5,0-6.4-2.9-6.4-6.4c0-3.5,2.9-6.4,6.4-6.4C76.3,28.1,79.2,31,79.2,34.5z"
	/>
<path class="st1" d="M60.3,14c0,4.4-3.6,8-8,8c-4.4,0-8-3.6-8-8c0-4.4,3.6-8,8-8C56.7,6,60.3,9.6,60.3,14z"/>
<path class="st1" d="M79.2,14c0,3.5-2.9,6.4-6.4,6.4c-3.5,0-6.4-2.9-6.4-6.4c0-3.5,2.9-6.4,6.4-6.4C76.3,7.6,79.2,10.5,79.2,14z"/>
<path class="st1" d="M98.3,34.5c0,2.8-2.2,5-5,5s-5-2.2-5-5s2.2-5,5-5S98.3,31.8,98.3,34.5z"/>
<path class="st1" d="M118.2,34.5c0,2.5-2,4.5-4.5,4.5c-2.5,0-4.5-2-4.5-4.5c0-2.5,2-4.5,4.5-4.5C116.2,30,118.2,32,118.2,34.5z"/>
<path class="st1" d="M98.3,14c0,2.8-2.2,5-5,5s-5-2.2-5-5c0-2.8,2.2-5,5-5S98.3,11.3,98.3,14z"/>
<path class="st1" d="M60.3,96c0,4.4-3.6,8-8,8c-4.4,0-8-3.6-8-8c0-4.4,3.6-8,8-8C56.7,87.9,60.3,91.5,60.3,96z"/>
<path class="st1" d="M79.2,96c0,3.5-2.9,6.4-6.4,6.4c-3.5,0-6.4-2.9-6.4-6.4c0-3.5,2.9-6.4,6.4-6.4C76.3,89.5,79.2,92.4,79.2,96z"/>
<path class="st1" d="M60.3,75.5c0,4.4-3.6,8-8,8c-4.4,0-8-3.6-8-8c0-4.4,3.6-8,8-8C56.7,67.5,60.3,71,60.3,75.5z"/>
<path class="st1" d="M79.2,75.5c0,3.5-2.9,6.4-6.4,6.4c-3.5,0-6.4-2.9-6.4-6.4c0-3.5,2.9-6.4,6.4-6.4C76.3,69.1,79.2,71.9,79.2,75.5
	z"/>
<path class="st1" d="M98.3,96c0,2.8-2.2,5-5,5s-5-2.2-5-5c0-2.8,2.2-5,5-5S98.3,93.2,98.3,96z"/>
<path class="st1" d="M98.3,75.5c0,2.8-2.2,5-5,5s-5-2.2-5-5s2.2-5,5-5S98.3,72.7,98.3,75.5z"/>
<path class="st1" d="M118.2,75.5c0,2.5-2,4.5-4.5,4.5c-2.5,0-4.5-2-4.5-4.5c0-2.5,2-4.5,4.5-4.5C116.2,71,118.2,73,118.2,75.5z"/>
<path class="st1" d="M118.2,55c0,2.5-2,4.5-4.5,4.5c-2.5,0-4.5-2-4.5-4.5c0-2.5,2-4.5,4.5-4.5C116.2,50.5,118.2,52.5,118.2,55z"/>
<path class="st1" d="M98.3,55c0,2.8-2.2,5-5,5s-5-2.2-5-5c0-2.8,2.2-5,5-5S98.3,52.2,98.3,55z"/>
<path class="st1" d="M79.2,55c0,3.5-2.9,6.4-6.4,6.4c-3.5,0-6.4-2.9-6.4-6.4c0-3.5,2.9-6.4,6.4-6.4C76.3,48.6,79.2,51.4,79.2,55z"/>
<path class="st1" d="M60.3,55c0,4.4-3.6,8-8,8c-4.4,0-8-3.6-8-8c0-4.4,3.6-8,8-8C56.7,47,60.3,50.6,60.3,55z"/>
</svg>
